<svg xmlns="http://www.w3.org/2000/svg" aria-hidden="true" style="position:absolute;width:0;height:0;overflow:hidden">
  <defs>
    <symbol id="icon-logo" viewBox="0 0 272 32">
      <path fill="#475467" style="fill: var(--color1, #475467)" d="M270.786 14.376h-7.216c-0.031-0.443-0.204-0.841-0.472-1.155l0.002 0.003c-0.283-0.325-0.64-0.578-1.046-0.734l-0.018-0.006c-0.405-0.17-0.876-0.268-1.369-0.268-0.018 0-0.037 0-0.055 0l0.003-0c-0.672 0-1.25 0.124-1.732 0.37-0.484 0.246-0.72 0.596-0.71 1.050-0.010 0.322 0.128 0.62 0.412 0.896 0.292 0.274 0.856 0.486 1.69 0.64l4.432 0.794c2.234 0.408 3.896 1.094 4.986 2.060 1.098 0.956 1.652 2.24 1.662 3.85-0.010 1.552-0.474 2.9-1.392 4.048-0.91 1.136-2.156 2.016-3.736 2.64-1.572 0.616-3.368 0.924-5.384 0.924-3.334 0-5.942-0.68-7.826-2.044-1.876-1.364-2.922-3.164-3.14-5.4h7.784c0.104 0.692 0.446 1.228 1.022 1.606 0.588 0.37 1.326 0.554 2.216 0.554 0.72 0 1.312-0.122 1.776-0.368 0.474-0.246 0.716-0.598 0.724-1.052-0.008-0.416-0.218-0.748-0.624-0.994-0.398-0.246-1.024-0.446-1.876-0.596l-3.862-0.682c-2.226-0.388-3.892-1.128-5-2.216-1.108-1.090-1.658-2.492-1.648-4.206-0.010-1.514 0.388-2.798 1.192-3.848 0.814-1.060 1.974-1.866 3.48-2.416 1.516-0.558 3.31-0.838 5.384-0.838 3.154 0 5.64 0.654 7.458 1.96 1.828 1.308 2.788 3.116 2.884 5.426zM232.83 23.92l0.056-9.318h1.024l5.284-7.33h8.806l-8.864 11.42h-2.216l-4.090 5.228zM225.784 29.090v-29.090h7.842v29.092h-7.842zM239.25 29.090l-5-8.636 5.114-5.568 8.864 14.206h-8.978zM211.238 29.488c-2.368 0-4.394-0.468-6.080-1.406-1.656-0.926-2.98-2.272-3.853-3.896l-0.025-0.052c-0.9-1.696-1.348-3.66-1.348-5.896 0-2.234 0.448-4.194 1.348-5.88 0.893-1.68 2.218-3.028 3.829-3.923l0.049-0.025c1.686-0.948 3.712-1.42 6.080-1.42 2.14 0 3.992 0.386 5.554 1.164 1.572 0.766 2.788 1.856 3.65 3.266 0.862 1.402 1.298 3.050 1.308 4.944h-7.274c-0.104-1.146-0.436-2.018-0.994-2.614-0.55-0.606-1.26-0.91-2.13-0.91-0.682 0-1.28 0.2-1.79 0.598-0.512 0.388-0.91 0.98-1.194 1.776-0.284 0.786-0.426 1.774-0.426 2.968s0.142 2.188 0.426 2.982c0.284 0.786 0.682 1.38 1.194 1.776 0.51 0.388 1.108 0.582 1.79 0.582 0.578 0 1.088-0.132 1.534-0.396 0.444-0.276 0.804-0.674 1.080-1.194 0.284-0.53 0.454-1.174 0.51-1.932h7.274c-0.030 1.922-0.47 3.6-1.322 5.028-0.852 1.42-2.060 2.52-3.622 3.296-1.554 0.776-3.41 1.164-5.568 1.164zM188.098 19.546v-12.274h7.84v21.82h-7.442v-4.148h-0.228c-0.452 1.367-1.325 2.493-2.463 3.252l-0.023 0.014c-1.184 0.776-2.59 1.164-4.22 1.164-1.524 0-2.86-0.35-4.004-1.050-1.136-0.709-2.041-1.691-2.637-2.857l-0.019-0.041c-0.626-1.23-0.942-2.642-0.952-4.232v-13.92h7.84v12.272c0.010 1.080 0.284 1.926 0.824 2.542 0.55 0.616 1.316 0.924 2.3 0.924 0.656 0 1.22-0.138 1.692-0.412 0.484-0.284 0.852-0.682 1.108-1.194 0.266-0.52 0.394-1.14 0.384-1.86zM155.806 29.092v-21.82h7.614v4.148h0.226c0.4-1.534 1.028-2.656 1.89-3.366 0.803-0.664 1.843-1.067 2.977-1.067 0.027 0 0.054 0 0.081 0.001l-0.004-0c0.34 0 0.676 0.030 1.008 0.086 0.34 0.048 0.668 0.12 0.98 0.212v6.694c-0.415-0.139-0.901-0.245-1.404-0.297l-0.030-0.003c-0.433-0.058-0.94-0.094-1.454-0.1l-0.008-0c-0.768 0-1.46 0.176-2.074 0.528-0.606 0.34-1.086 0.822-1.436 1.448-0.35 0.616-0.526 1.34-0.526 2.174v11.362h-7.84zM128.9 6.364v-6.364h25.286v6.364h-8.75v22.728h-7.784v-22.73h-8.752z"></path>
      <path fill="#101828" style="fill: var(--color2, #101828)" d="M125.016 0v29.092h-7.84v-29.092h7.84zM102.494 29.488c-2.33 0-4.338-0.444-6.024-1.334-1.658-0.889-2.983-2.21-3.854-3.815l-0.024-0.049c-0.9-1.686-1.348-3.702-1.348-6.052 0-2.254 0.454-4.222 1.362-5.908 0.896-1.666 2.209-3.006 3.802-3.911l0.048-0.025c1.658-0.936 3.614-1.406 5.866-1.406 1.648 0 3.14 0.256 4.476 0.768 1.34 0.51 2.483 1.269 3.42 2.228l0.002 0.002c0.948 0.966 1.676 2.14 2.188 3.522 0.512 1.384 0.768 2.94 0.768 4.674v1.818h-19.49v-4.32h12.274c0-0.003 0-0.006 0-0.009 0-0.608-0.181-1.175-0.491-1.648l0.007 0.011c-0.304-0.48-0.722-0.862-1.218-1.114l-0.018-0.008c-0.488-0.26-1.067-0.413-1.682-0.413-0.023 0-0.045 0-0.068 0.001l0.003-0c-0.636 0-1.218 0.138-1.748 0.412-0.524 0.26-0.955 0.636-1.273 1.097l-0.007 0.011c-0.31 0.474-0.476 1.028-0.496 1.66v4.66c0 0.7 0.148 1.326 0.44 1.876 0.294 0.55 0.716 0.98 1.266 1.292 0.548 0.314 1.212 0.47 1.988 0.47 0.54 0 1.032-0.076 1.478-0.228 0.454-0.152 0.842-0.37 1.164-0.654 0.32-0.292 0.56-0.644 0.71-1.050h7.16c-0.233 1.518-0.855 2.861-1.759 3.962l0.011-0.014c-0.92 1.108-2.136 1.97-3.65 2.586-1.506 0.606-3.268 0.908-5.284 0.908zM89.672 7.272l-7.328 21.82h-9.092l-7.33-21.82h8.24l3.522 14.432h0.228l3.522-14.432h8.24zM50.112 29.432c-1.392 0-2.624-0.228-3.694-0.682-1.042-0.449-1.894-1.173-2.487-2.081l-0.013-0.021c-0.606-0.938-0.908-2.132-0.908-3.58 0-1.194 0.204-2.212 0.61-3.054 0.401-0.844 0.979-1.545 1.692-2.078l0.014-0.010c0.728-0.54 1.576-0.952 2.54-1.236 0.922-0.274 1.998-0.471 3.106-0.551l0.050-0.003c1.22-0.094 2.2-0.208 2.94-0.34 0.748-0.142 1.288-0.336 1.62-0.582 0.302-0.223 0.496-0.578 0.496-0.978 0-0.011-0-0.022-0-0.033l0 0.002v-0.056c0-0.568-0.218-1.004-0.654-1.308-0.436-0.302-0.994-0.454-1.676-0.454-0.748 0-1.36 0.166-1.832 0.498-0.464 0.32-0.744 0.82-0.838 1.49h-7.216c0.097-1.378 0.556-2.632 1.28-3.689l-0.016 0.025c0.758-1.126 1.86-2.026 3.31-2.7 1.448-0.68 3.258-1.020 5.426-1.020 1.562 0 2.964 0.184 4.204 0.552 1.24 0.36 2.296 0.868 3.168 1.52 0.872 0.644 1.534 1.402 1.988 2.274 0.464 0.86 0.696 1.8 0.696 2.812v14.944h-7.328v-3.072h-0.172c-0.406 0.779-0.939 1.436-1.58 1.968l-0.010 0.008c-0.616 0.5-1.32 0.866-2.116 1.092-0.749 0.216-1.61 0.341-2.499 0.341-0.035 0-0.071-0-0.106-0.001l0.005 0zM52.668 24.488c0.598 0 1.156-0.122 1.676-0.368 0.532-0.246 0.962-0.602 1.294-1.066s0.496-1.028 0.496-1.69v-1.82c-0.157 0.068-0.377 0.15-0.602 0.224l-0.064 0.018c-0.415 0.14-0.94 0.277-1.475 0.384l-0.087 0.014c-0.176 0.041-0.48 0.096-0.786 0.144l-0.11 0.014c-0.556 0.073-1.060 0.238-1.516 0.48l0.024-0.012c-0.38 0.208-0.662 0.468-0.852 0.78-0.17 0.285-0.27 0.628-0.27 0.994 0 0.010 0 0.021 0 0.031l-0-0.002c0 0.606 0.214 1.070 0.64 1.392 0.426 0.32 0.97 0.482 1.632 0.482zM26.904 29.092v-21.82h7.614v4.148h0.228c0.396-1.534 1.026-2.656 1.888-3.366 0.803-0.664 1.843-1.067 2.977-1.067 0.027 0 0.054 0 0.081 0.001l-0.004-0c0.34 0 0.678 0.030 1.010 0.086 0.34 0.048 0.666 0.12 0.98 0.212v6.694c-0.416-0.139-0.903-0.245-1.406-0.297l-0.030-0.003c-0.433-0.058-0.94-0.094-1.454-0.1l-0.008-0c-0.768 0-1.46 0.176-2.074 0.528-0.606 0.34-1.084 0.822-1.436 1.448-0.35 0.616-0.524 1.34-0.524 2.174v11.362h-7.84zM0 6.364v-6.364h25.284v6.364h-8.75v22.728h-7.784v-22.73h-8.75z"></path>
    </symbol>
    <symbol id="icon-cup-hot" viewBox="0 0 32 32">
      <path d="M1 12a1.001 1.001 0 0 0-.974 1.223l-.001-.007 3.304 14.868c.514 2.257 2.503 3.915 4.88 3.916h11.584a5.003 5.003 0 0 0 4.874-3.882l.006-.034.262-1.18a6 6 0 0 0 2.642-11.699l-.042-.009.442-1.98A1 1 0 0 0 27.001 12h-26zm25 13a4.05 4.05 0 0 1-.632-.05l1.734-7.796c1.682.499 2.889 2.03 2.889 3.844A4.002 4.002 0 0 1 26.001 25H26zM5.28 27.65 2.246 14h23.508L22.72 27.65A3.005 3.005 0 0 1 19.792 30H8.208a3 3 0 0 1-2.924-2.33l-.004-.02zM8.8 1.6l-.006.008-.028.038c-.146.2-.282.407-.408.62a3.854 3.854 0 0 0-.272.508l-.01.026c-.052.12-.068.184-.074.206v.008c.025.187.089.355.185.501l-.003-.005c.15.266.356.544.616.89l.02.024c.236.316.52.694.74 1.086.224.4.44.91.44 1.49 0 .376-.13.736-.238.988a5.983 5.983 0 0 1-.419.801l.015-.025c-.181.301-.348.551-.525.792l.019-.028-.036.05-.01.016-.004.004a1 1 0 1 1-1.6-1.201L7.2 8.4l.006-.008.028-.038c.146-.2.282-.407.408-.62.097-.151.191-.326.272-.508l.01-.026c.052-.12.068-.184.074-.206a1.201 1.201 0 0 0-.183-.509l.003.005a7.898 7.898 0 0 0-.63-.905L7.2 5.6l-.02-.024a9.9 9.9 0 0 1-.715-1.04L6.44 4.49A3.023 3.023 0 0 1 6 3.005V3c0-.376.13-.736.238-.988.118-.276.268-.548.404-.776.159-.261.328-.516.506-.764l.05-.07a1 1 0 1 1 1.6 1.201L8.8 1.6zm6 0-.006.008-.028.038c-.146.2-.282.407-.408.62-.107.17-.202.35-.282.534-.052.12-.068.184-.074.206v.008c.025.187.089.355.185.501l-.003-.005c.15.266.356.544.616.89l.02.024c.236.316.52.694.74 1.086.224.4.44.91.44 1.49 0 .376-.13.736-.238.988a5.95 5.95 0 0 1-.404.776c-.181.301-.348.55-.525.791l.019-.027-.036.05-.01.016-.004.004a1 1 0 1 1-1.6-1.201L13.2 8.4l.006-.008.028-.038c.146-.2.282-.407.408-.62.107-.17.202-.35.282-.534.052-.12.068-.184.074-.206a1.201 1.201 0 0 0-.183-.509l.003.005a7.898 7.898 0 0 0-.63-.905l.012.015-.02-.024c-.27-.345-.517-.708-.74-1.086A3.023 3.023 0 0 1 12 3.005V3c0-.376.13-.736.238-.988.118-.276.268-.548.404-.776.159-.261.328-.516.506-.764l.05-.07a1 1 0 1 1 1.6 1.201L14.8 1.6zm6 0-.006.008-.028.038c-.145.2-.282.407-.408.62-.107.17-.202.35-.282.534-.052.12-.068.184-.074.206v.008c.025.187.089.355.185.501l-.003-.005c.15.266.356.544.616.89l.02.024c.236.316.52.694.74 1.086.224.4.44.91.44 1.49 0 .376-.13.736-.238.988a5.95 5.95 0 0 1-.404.776 9.875 9.875 0 0 1-.504.764l-.038.05-.01.016-.004.004a1 1 0 1 1-1.6-1.201L19.2 8.4l.006-.008.028-.038c.145-.2.282-.407.408-.62.107-.17.202-.35.282-.534.052-.12.068-.184.074-.206a1.201 1.201 0 0 0-.183-.509l.003.005a7.898 7.898 0 0 0-.63-.905l.012.015-.02-.024c-.27-.345-.517-.708-.74-1.086A3.023 3.023 0 0 1 18 3.005V3c0-.376.13-.736.238-.988.118-.276.268-.548.404-.776.159-.261.328-.516.506-.764l.05-.07a1 1 0 1 1 1.6 1.201L20.8 1.6z"/>
    </symbol>
    <symbol id="icon-diagram" viewBox="0 0 32 32">
      <path d="M12 7a3 3 0 0 1 3-3h2a3 3 0 0 1 3 3v2a3 3 0 0 1-3 3v2h11a1 1 0 0 1 1 1v2a1 1 0 0 1-2 0v-1H17v1a1 1 0 0 1-2 0v-1H5v1a1 1 0 0 1-2 0v-2a1 1 0 0 1 1-1h11v-2a3 3 0 0 1-3-3V7zm5 3a1 1 0 0 0 1-1V7a1 1 0 0 0-1-1h-2a1 1 0 0 0-1 1v2a1 1 0 0 0 1 1h2zM0 23a3 3 0 0 1 3-3h2a3 3 0 0 1 3 3v2a3 3 0 0 1-3 3H3a3 3 0 0 1-3-3v-2zm3-1a1 1 0 0 0-1 1v2a1 1 0 0 0 1 1h2a1 1 0 0 0 1-1v-2a1 1 0 0 0-1-1H3zm9 1a3 3 0 0 1 3-3h2a3 3 0 0 1 3 3v2a3 3 0 0 1-3 3h-2a3 3 0 0 1-3-3v-2zm3-1a1 1 0 0 0-1 1v2a1 1 0 0 0 1 1h2a1 1 0 0 0 1-1v-2a1 1 0 0 0-1-1h-2zm9 1a3 3 0 0 1 3-3h2a3 3 0 0 1 3 3v2a3 3 0 0 1-3 3h-2a3 3 0 0 1-3-3v-2zm3-1a1 1 0 0 0-1 1v2a1 1 0 0 0 1 1h2a1 1 0 0 0 1-1v-2a1 1 0 0 0-1-1h-2z"/>
    </symbol>
    <symbol id="icon-fridge" viewBox="0 0 32 32">
      <path d="M23.667 9.333a1 1 0 0 0-2 0V12a1 1 0 0 0 2 0V9.333zm0 9.334a1 1 0 0 0-2 0v2.666a1 1 0 0 0 2 0v-2.666z"/>
      <path d="M16.075 1.667h-.15c-2.45 0-4.392 0-5.91.204-1.563.21-2.828.653-3.827 1.65-.997.999-1.44 2.264-1.65 3.827-.205 1.52-.205 3.46-.205 5.91v4.15c0 2.45 0 4.392.204 5.91.211 1.563.654 2.829 1.651 3.827.613.612 1.325 1.015 2.145 1.284v.904a1 1 0 0 0 1 1h1.334a1 1 0 0 0 1-1v-.394c1.209.061 2.62.061 4.258.061h.15c1.64 0 3.049 0 4.258-.061v.394a1 1 0 0 0 1 1h1.334a1 1 0 0 0 1-1v-.904c.82-.269 1.533-.672 2.145-1.284.997-.998 1.44-2.264 1.65-3.826.205-1.52.205-3.46.205-5.911V13.26c0-2.45 0-4.392-.204-5.91-.211-1.563-.654-2.829-1.651-3.827-.999-.998-2.264-1.44-3.827-1.651-1.52-.204-3.46-.204-5.91-.204zM7.603 4.936c.564-.564 1.337-.903 2.678-1.083 1.371-.184 3.176-.186 5.719-.186s4.35.002 5.72.186c1.34.18 2.113.519 2.677 1.083s.903 1.337 1.083 2.679c.184 1.37.187 3.176.187 5.718v1H6.333v-1c0-2.542.003-4.348.187-5.72.18-1.34.519-2.113 1.083-2.677zm-1.27 11.397h19.334v1c0 2.543-.003 4.35-.187 5.72-.18 1.34-.519 2.114-1.083 2.678s-1.337.902-2.678 1.082C20.348 26.997 18.543 27 16 27s-4.348-.003-5.72-.187c-1.34-.18-2.113-.518-2.677-1.082S6.7 24.393 6.52 23.052c-.184-1.37-.187-3.176-.187-5.719v-1z"/>
    </symbol>
    <symbol id="icon-fuel" viewBox="0 0 32 32">
      <path d="M6 5a1 1 0 0 1 1-1h10a1 1 0 0 1 1 1v10a1 1 0 0 1-1 1H7a1 1 0 0 1-1-1V5z"/>
      <path d="M2 4a4 4 0 0 1 4-4h12a4 4 0 0 1 4 4v16a4 4 0 0 1 4 4v1a1 1 0 0 0 2 0v-9h-1a1 1 0 0 1-1-1V8.75a1 1 0 0 1 1-1h2.99c-.022-.952-.106-1.788-.402-2.444a1.945 1.945 0 0 0-.78-.911L28.8 4.39C28.432 4.17 27.872 4 27 4a1 1 0 0 1 0-2c1.128-.003 2.07.221 2.824.672.766.456 1.268 1.102 1.588 1.814.59 1.31.588 2.93.588 4.162V15a1 1 0 0 1-1 1h-1v9a3 3 0 1 1-6 0v-1a2 2 0 0 0-2-2v8h1a1 1 0 0 1 0 2H1a1 1 0 0 1 0-2h1V4zm18 0a2 2 0 0 0-2-2H6a2 2 0 0 0-2 2v26h16V4z"/>
    </symbol>
    <symbol id="icon-gas" viewBox="0 0 32 32">
      <path fill="none" stroke="var(--main)" stroke-linecap="round" stroke-linejoin="round" stroke-width="2.4" d="M8 25.333h5.333M24 25.345v-.012M2.667 8c0-4.413.92-5.333 5.333-5.333h16c4.413 0 5.333.92 5.333 5.333v16c0 4.413-.92 5.333-5.333 5.333H8c-4.413 0-5.333-.92-5.333-5.333V8z"/>
      <path fill="none" stroke="var(--main)" stroke-linecap="round" stroke-linejoin="round" stroke-width="2.4" d="M16 18.667a5.334 5.334 0 1 0 0-10.668 5.334 5.334 0 1 0 0 10.668zm4.667-5.334h2M16 18v2m-4.667-6.667h-2M16 8.667v-2"/>
    </symbol>
    <symbol id="icon-heart" viewBox="0 0 32 32">
      <path d="m16 13.139-1.788-3.577c-.444-.887-1.213-2.16-2.304-3.191C10.836 5.358 9.552 4.667 8 4.667c-3.352 0-6 2.652-6 5.84 0 2.423 1.108 4.132 3.736 6.74.719.705 1.465 1.418 2.221 2.122l.071.065C10.244 21.514 13 24.101 16 27.562c3-3.46 5.756-6.049 7.972-8.128.827-.768 1.573-1.482 2.31-2.204l-.018.018C28.892 14.64 30 12.929 30 10.508c0-3.188-2.648-5.84-6-5.84-1.555 0-2.836.691-3.908 1.704-1.091 1.031-1.86 2.304-2.304 3.191L16 13.14zm.784 16.584a1.026 1.026 0 0 1-1.567.002l-.001-.001c-3.203-3.804-6.1-6.524-8.487-8.763C2.6 17.085 0 14.645 0 10.508c0-4.329 3.58-7.84 8-7.84 3.2 0 5.439 2.1 6.808 4.016.52.731.916 1.432 1.192 1.984.347-.691.745-1.353 1.192-1.984C18.561 4.767 20.8 2.668 24 2.668c4.42 0 8 3.511 8 7.84 0 4.137-2.6 6.576-6.729 10.453-2.387 2.24-5.284 4.963-8.487 8.763z"/>
    </symbol>
    <symbol id="icon-l-grid" viewBox="0 0 32 32">
      <path d="M12 2H2v28h10V2zm18 0H20v10h10V2zm0 18v10H20V20h10zM0 2a2 2 0 0 1 2-2h10a2 2 0 0 1 2 2v28a2 2 0 0 1-2 2H2a2 2 0 0 1-2-2V2zm18 0a2 2 0 0 1 2-2h10a2 2 0 0 1 2 2v10a2 2 0 0 1-2 2H20a2 2 0 0 1-2-2V2zm2 16a2 2 0 0 0-2 2v10a2 2 0 0 0 2 2h10a2 2 0 0 0 2-2V20a2 2 0 0 0-2-2H20z"/>
    </symbol>
    <symbol id="icon-m-grid" viewBox="0 0 32 32">
      <path d="M2 5a3 3 0 0 1 3-3h6a3 3 0 0 1 3 3v6a3 3 0 0 1-3 3H5a3 3 0 0 1-3-3V5zm3-1a1 1 0 0 0-1 1v6a1 1 0 0 0 1 1h6a1 1 0 0 0 1-1V5a1 1 0 0 0-1-1H5zm13 1a3 3 0 0 1 3-3h6a3 3 0 0 1 3 3v6a3 3 0 0 1-3 3h-6a3 3 0 0 1-3-3V5zm3-1a1 1 0 0 0-1 1v6a1 1 0 0 0 1 1h6a1 1 0 0 0 1-1V5a1 1 0 0 0-1-1h-6zM2 21a3 3 0 0 1 3-3h6a3 3 0 0 1 3 3v6a3 3 0 0 1-3 3H5a3 3 0 0 1-3-3v-6zm3-1a1 1 0 0 0-1 1v6a1 1 0 0 0 1 1h6a1 1 0 0 0 1-1v-6a1 1 0 0 0-1-1H5zm13 1a3 3 0 0 1 3-3h6a3 3 0 0 1 3 3v6a3 3 0 0 1-3 3h-6a3 3 0 0 1-3-3v-6zm3-1a1 1 0 0 0-1 1v6a1 1 0 0 0 1 1h6a1 1 0 0 0 1-1v-6a1 1 0 0 0-1-1h-6z"/>
    </symbol>
    <symbol id="icon-microwave" viewBox="0 0 32 32">
      <path fill="none" stroke="var(--main)" stroke-linecap="round" stroke-linejoin="round" stroke-width="2" d="M26.667 5.333H5.333A2.667 2.667 0 0 0 2.667 8v14.667a2.668 2.668 0 0 0 2.666 2.666h21.334a2.668 2.668 0 0 0 2.666-2.666V8a2.667 2.667 0 0 0-2.666-2.667z"/>
      <path fill="none" stroke="var(--main)" stroke-linecap="round" stroke-linejoin="round" stroke-width="2" d="M17.333 10.667h-8C8.597 10.667 8 11.264 8 12v6.667C8 19.403 8.597 20 9.333 20h8c.737 0 1.334-.597 1.334-1.333V12c0-.736-.597-1.333-1.334-1.333zm6.667 0V20M8 25.333V28m16-2.667V28"/>
    </symbol>
    <symbol id="icon-radios" viewBox="0 0 32 32">
      <path d="M14 5a1 1 0 0 1 1-1h14a1 1 0 0 1 1 1v2a1 1 0 0 1-1 1H15a1 1 0 0 1-1-1V5zM0 24a6 6 0 1 1 12 0 6 6 0 1 1-12 0zm14-3a1 1 0 0 1 1-1h14a1 1 0 0 1 1 1v2a1 1 0 0 1-1 1H15a1 1 0 0 1-1-1v-2zm0-10a1 1 0 0 1 1-1h10a1 1 0 0 1 0 2H15a1 1 0 0 1-1-1zm0 16a1 1 0 0 1 1-1h10a1 1 0 0 1 0 2H15a1 1 0 0 1-1-1zM6 2a6 6 0 1 0 0 12A6 6 0 1 0 6 2zm0 9a3 3 0 1 1 0-6 3 3 0 1 1 0 6z"/>
    </symbol>
    <symbol id="icon-s-grid" viewBox="0 0 32 32">
      <path d="M8 4v4H4V4h4zm2 24v-4a2 2 0 0 0-2-2H4a2 2 0 0 0-2 2v4a2 2 0 0 0 2 2h4a2 2 0 0 0 2-2zm0-10v-4a2 2 0 0 0-2-2H4a2 2 0 0 0-2 2v4a2 2 0 0 0 2 2h4a2 2 0 0 0 2-2zm0-10V4a2 2 0 0 0-2-2H4a2 2 0 0 0-2 2v4a2 2 0 0 0 2 2h4a2 2 0 0 0 2-2zm10 20v-4a2 2 0 0 0-2-2h-4a2 2 0 0 0-2 2v4a2 2 0 0 0 2 2h4a2 2 0 0 0 2-2zm0-10v-4a2 2 0 0 0-2-2h-4a2 2 0 0 0-2 2v4a2 2 0 0 0 2 2h4a2 2 0 0 0 2-2zm0-10V4a2 2 0 0 0-2-2h-4a2 2 0 0 0-2 2v4a2 2 0 0 0 2 2h4a2 2 0 0 0 2-2zm-2-4v4h-4V4h4zm10 0v4h-4V4h4zM8 14v4H4v-4h4zm10 0v4h-4v-4h4zm10 0h-4v4h4v-4zM8 24v4H4v-4h4zm10 0v4h-4v-4h4zm10 0v4h-4v-4h4zM24 2a2 2 0 0 0-2 2v4a2 2 0 0 0 2 2h4a2 2 0 0 0 2-2V4a2 2 0 0 0-2-2h-4zm-2 12a2 2 0 0 1 2-2h4a2 2 0 0 1 2 2v4a2 2 0 0 1-2 2h-4a2 2 0 0 1-2-2v-4zm2 8a2 2 0 0 0-2 2v4a2 2 0 0 0 2 2h4a2 2 0 0 0 2-2v-4a2 2 0 0 0-2-2h-4z"/>
    </symbol>
    <symbol id="icon-shower" viewBox="0 0 32 32">
      <path d="M8 29.5a1.5 1.5 0 0 1-3 0 1.5 1.5 0 0 1 3 0zm2.5-5.5a1.5 1.5 0 0 0 0 3 1.5 1.5 0 0 0 0-3zm-8 0a1.5 1.5 0 0 0 0 3 1.5 1.5 0 0 0 0-3zm4-4a1.5 1.5 0 0 0 0 3 1.5 1.5 0 0 0 0-3zM32 5a1 1 0 0 1-1 1h-3.586l-3.482 3.482-2.707 15.85a2.003 2.003 0 0 1-3.386 1.082l-12.25-12.25a2 2 0 0 1 1.074-3.386l.012-.002 15.842-2.708 3.776-3.775A.997.997 0 0 1 27 4h4a1 1 0 0 1 1 1zm-10.224 5.224L7 12.75 19.25 25l2.526-14.776z"/>
    </symbol>
    <symbol id="icon-star" viewBox="0 0 32 32">
      <path d="M15.116 1.676a1.001 1.001 0 0 1 1.765-.005l.003.005 3.778 7.158c.144.27.401.464.706.519l.006.001 7.976 1.38a1.001 1.001 0 0 1 .546 1.68l-5.64 5.804a.994.994 0 0 0-.273.845l-.001-.005 1.152 8.01a1 1 0 0 1-1.436 1.037l.006.003-7.264-3.572a.992.992 0 0 0-.89.003l.006-.003-7.26 3.572a1 1 0 0 1-1.431-1.046l-.001.005 1.152-8.01a.994.994 0 0 0-.274-.84l-5.64-5.804a1 1 0 0 1 .54-1.679l.006-.001 7.976-1.38a1 1 0 0 0 .711-.515l.003-.005 3.778-7.158z"/>
    </symbol>
    <symbol id="icon-tv" viewBox="0 0 32 32">
      <path d="M0 8s0-4 4-4h24s4 0 4 4v12s0 4-4 4h-8c0 1.333.167 2.333.5 3H22a1 1 0 0 1 0 2H10a1 1 0 0 1 0-2h1.5c.333-.667.5-1.667.5-3H4s-4 0-4-4V8zm2.796-1.71a1.526 1.526 0 0 0-.504.595l-.004.009A2.957 2.957 0 0 0 2 8.012V20c0 .65.156 1.004.29 1.204.14.208.341.377.604.508.338.162.703.259 1.076.286l.05.002H28c.65 0 1.004-.156 1.204-.29.218-.153.391-.357.504-.595l.004-.009c.162-.338.259-.703.286-1.076l.002-.05V8c0-.65-.156-1.004-.29-1.204a1.526 1.526 0 0 0-.595-.504l-.009-.004A2.957 2.957 0 0 0 27.988 6H4c-.65 0-1.004.156-1.204.29z"/>
    </symbol>
    <symbol id="icon-water" viewBox="0 0 32 32">
      <path fill="none" stroke="var(--main)" stroke-linejoin="miter" stroke-linecap="butt" stroke-miterlimit="10" stroke-width="2" d="M25 20c0 5.523-3.477 9-9 9s-9-3.477-9-9c0-5.927 6.452-13.928 8.43-16.243 0.138-0.161 0.342-0.263 0.57-0.263s0.432 0.101 0.569 0.262l0.001 0.001c1.978 2.315 8.43 10.316 8.43 16.243z"></path>
      <path fill="none" stroke="var(--main)" stroke-linejoin="round" stroke-linecap="round" stroke-miterlimit="4" stroke-width="2" d="M21.5 20.5c0 2.485-2.015 4.5-4.5 4.5v0"></path>
    </symbol>
    <symbol id="icon-wind" viewBox="0 0 32 32">
      <path d="M25 4a5 5 0 0 0-5 5 1 1 0 0 1-2 0 7 7 0 1 1 7 7H1a1 1 0 0 1 0-2h24a5 5 0 0 0 0-10zM11 6a2 2 0 0 0-2 2 1 1 0 0 1-2 0 4 4 0 1 1 4 4H1a1 1 0 0 1 0-2h10a2 2 0 1 0 0-4zM0 19a1 1 0 0 1 1-1h20.084a6 6 0 1 1-6 6 1 1 0 0 1 2 0 4 4 0 1 0 4-4H1a1 1 0 0 1-1-1z"/>
    </symbol>
    <symbol id="icon-map" viewBox="0 0 32 32">
      <path d="M31.634 0.226c0.224 0.185 0.366 0.463 0.366 0.773 0 0 0 0 0 0.001v-0 28c-0 0.483-0.343 0.885-0.798 0.979l-0.006 0.001-10 2c-0.059 0.012-0.127 0.019-0.196 0.019s-0.137-0.007-0.202-0.021l0.006 0.001-9.804-1.96-9.804 1.96c-0.059 0.012-0.127 0.019-0.196 0.019-0.552 0-1-0.447-1-0.999v-28c0-0.483 0.343-0.885 0.798-0.979l0.006-0.001 10-2c0.059-0.012 0.127-0.019 0.196-0.019s0.137 0.007 0.202 0.021l-0.006-0.001 9.804 1.96 9.804-1.96c0.059-0.013 0.127-0.020 0.197-0.020 0.241 0 0.462 0.085 0.634 0.227l-0.002-0.001zM20 3.82l-8-1.6v25.96l8 1.6v-25.96zM22 29.78l8-1.6v-25.96l-8 1.6v25.96zM10 28.18v-25.96l-8 1.6v25.96l8-1.6z"></path>
    </symbol>
  </defs>
</svg>